<?xml version="1.0" encoding="utf-8"?>
<!-- Generator: Adobe Illustrator 22.0.1, SVG Export Plug-In . SVG Version: 6.00 Build 0)  -->
<svg version="1.1" id="Laag_1" xmlns="http://www.w3.org/2000/svg" xmlns:xlink="http://www.w3.org/1999/xlink" x="0px" y="0px"
	 viewBox="0 0 898.3 320.3" style="enable-background:new 0 0 898.3 320.3;" xml:space="preserve">
<style type="text/css">
	.st0{fill:#EFAF1E;}
	.st1{fill:#1D1C1B;stroke:#1C1C1B;stroke-width:4;stroke-linecap:round;stroke-linejoin:round;stroke-miterlimit:10;}
	.st2{fill:#FFFDFD;stroke:#FCFCFC;stroke-width:4;stroke-linecap:round;stroke-linejoin:round;stroke-miterlimit:10;}
	.st3{fill:none;}
	.st4{fill:#FFFDFD;stroke:#2A1E18;stroke-width:3.6214;stroke-linecap:round;stroke-linejoin:round;stroke-miterlimit:10;}
	.st5{fill:#FFFDFD;stroke:#2A1E18;stroke-width:3.6449;stroke-linecap:round;stroke-linejoin:round;stroke-miterlimit:10;}
	.st6{font-family:'Cabin-Bold';}
	.st7{font-size:75.1363px;}
</style>
<rect x="-3" y="-4.7" class="st0" width="907" height="332"/>
<circle class="st1" cx="461.9" cy="161.3" r="122.5"/>
<circle class="st2" cx="447.9" cy="153.4" r="122.5"/>
<rect x="333.9" y="89.1" class="st3" width="230.9" height="143.8"/>
<path class="st4" d="M30.7,155h158.1c0,0,8.5,2.2,14.7-7.2s20.2-21.7,30.9-21.1c10.8,0.5,15.1-0.7,17.2-4.5c2-3.8,5.8-13,9.3-13.2
	s10.7-0.2,11.7,8s0.2,16.3-3.8,19.9s-6.5,5.4-12,5.8c-5.5,0.4-8.5,0-8.5,0h71.6c0,0,8.5,1.1,9,9.6s-3.1,13.6-8.2,13.6
	c-2,0-60.9,0-60.9,0l35,0.3c0,0,4.8,3.3,4.9,10.5c0.1,7.1-2.3,12.7-7.8,13s-32.5,0-32.5,0l31.4,0.5c0,0,5,4.1,5,10.9
	s-1.9,11.7-8,11.8s-28.5,0-28.5,0l23.4,0.3c0,0,5.2,3.6,5.2,10.8s-1.5,12.7-7.2,12.2s-52.5,0-52.5,0s-8.6-0.6-16.4-8.1
	s-13.5-7.9-25.1-7.8S0,220.3,0,220.3v-64.8L30.7,155z"/>
<path class="st5" d="M867.2,120.6H707.1c0,0-8.7,2.2-14.9-7.2c-6.3-9.4-20.4-21.7-31.3-21.1s-15.3-0.7-17.4-4.5
	c-2.1-3.8-5.9-13-9.5-13.2s-10.8-0.2-11.8,8c-1,8.1-0.2,16.3,3.9,19.9s6.6,5.4,12.2,5.8c5.6,0.4,8.6,0,8.6,0h-72.5
	c0,0-8.6,1.1-9.1,9.6s3.2,13.6,8.3,13.6c2.1,0,61.7,0,61.7,0l-35.4,0.3c0,0-4.8,3.3-5,10.5c-0.1,7.1,2.4,12.7,7.9,13
	c5.5,0.4,33,0,33,0l-31.9,0.5c0,0-5,4.1-5.1,10.9s1.9,11.7,8.1,11.8c6.1,0.1,28.9,0,28.9,0l-23.7,0.3c0,0-5.3,3.6-5.3,10.8
	c0.1,7.2,1.6,12.7,7.3,12.2c5.8-0.4,53.2,0,53.2,0s8.7-0.6,16.6-8.1c7.9-7.5,13.7-7.9,25.4-7.8c11.7,0.1,189.2,0,189.2,0V121
	L867.2,120.6z"/>
<text transform="matrix(0.9191 -8.620426e-03 9.378820e-03 1 350.0063 173.5434)" class="st6 st7">Win 5’ </text>
</svg>
