<?xml version="1.0" encoding="utf-8"?>
<!-- Generator: Adobe Illustrator 22.0.1, SVG Export Plug-In . SVG Version: 6.00 Build 0)  -->
<svg version="1.1" id="Laag_1" xmlns="http://www.w3.org/2000/svg" xmlns:xlink="http://www.w3.org/1999/xlink" x="0px" y="0px"
	 viewBox="0 0 271.2 271" style="enable-background:new 0 0 271.2 271;" xml:space="preserve">
<style type="text/css">
	.st0{fill:#E5E4E9;}
	.st1{fill:#CF964B;}
	.st2{fill:#C5BFA3;}
	.st3{fill:#F6EEA0;}
	.st4{fill:#302F32;}
	.st5{opacity:0.8;stroke:#000000;stroke-width:3.0337;stroke-miterlimit:10;}
	.st6{opacity:0.8;fill:none;stroke:#000000;stroke-width:3.0337;stroke-miterlimit:10;}
</style>
<g>
	<circle class="st0" cx="136.8" cy="137.3" r="128"/>
	<path class="st1" d="M136.8,137.3l122.7-36.4c0,0,34.6,106.7-73.7,154.7L136.8,137.3z"/>
	<path class="st2" d="M136.4,137.3l29.7-124.6c0,0,108.2,22.5,98,141.3L136.4,137.3z"/>
	<path class="st3" d="M136.8,137.3L21.7,81.2c-1.3-5.6,55.1-100,159.4-64L136.8,137.3z"/>
	<g>
		<path class="st4" d="M38.1,163.4l-0.2-0.1c-0.1-0.5-0.4-0.9-0.7-1.4c-0.3-0.5-0.7-1-1.1-1.5c-0.4-0.5-0.8-0.9-1.2-1.4
			c-0.4-0.4-0.8-0.9-1.2-1.3l-0.5-0.1c0.8,1.1,1.7,2,2.5,2.8c0.8,0.8,1.4,1.8,1.7,2.9l0.4,0.3l-0.6-0.1l-0.1-0.4
			c-1.1-1.2-2.2-2.5-3.3-3.9c-1.1-1.4-2.2-2.7-3.2-3.9c0.3,2.7,0.6,5.5,0.7,8.2c0.1,2.8,0.1,5.5-0.1,8.2c-0.2,2.3-0.6,4.6-1.1,6.8
			c-0.6,2.2-0.9,4.5-1,6.9l-0.6-0.2l-0.6,0.3c-0.4,0-0.6-0.2-0.7-0.6c-0.1-0.3-0.1-0.7-0.1-1.2c0-0.5,0-1,0.1-1.5
			c0-0.5,0.1-1,0.2-1.5c0.1-0.5,0.1-0.9,0.2-1.2l-0.6,0c-0.1,0.3-0.2,0.9-0.4,1.8c-0.2,0.9-0.5,1.9-0.8,2.9c-0.3,1-0.6,1.9-0.9,2.8
			c-0.3,0.8-0.6,1.3-0.9,1.4c-0.2-0.1-0.4-0.2-0.6-0.4c-0.1-0.2-0.3-0.4-0.3-0.6c-0.3-1.1-0.5-2.7-0.4-4.6c0-1.9,0.1-4,0.3-6.1
			c0.2-2.1,0.3-4.2,0.6-6.2c0.2-2,0.3-3.7,0.4-5.1c0-1.2,0-2.5,0-3.8c-0.1-1.3-0.2-2.7-0.3-4.1c-0.2-1.4-0.3-2.7-0.5-4
			c-0.2-1.3-0.4-2.6-0.6-3.8c0.5-0.7,1.3-1.4,2.4-2c1.1-0.7,2-1.3,2.9-2c2.6,1.1,4.9,2.6,7.1,4.4c2.1,1.8,4.2,3.9,6.1,6.4
			c0.4-1.2,0.7-2.6,1-4.1c0.2-1.5,0.4-2.9,0.5-4.5c0.1-1.5,0.2-3,0.3-4.5c0.1-1.5,0.2-2.9,0.3-4.2c0.9-0.6,1.8-1.1,2.9-1.6
			c1-0.5,2-0.9,3-1.4c1.7,1.9,3.2,3.7,4.7,5.4c1.5,1.7,2.9,3.5,4.3,5.3c1.4,1.8,2.7,3.6,3.9,5.6c1.2,1.9,2.4,4,3.6,6.3
			c0.6,1.2,1.2,2.4,1.9,3.5c0.7,1.2,1.4,2.4,2,3.6c0.7,1.2,1.3,2.4,1.8,3.6c0.6,1.2,1,2.5,1.4,3.8c0,0.1,0,0.3,0,0.5
			c0,0.2-0.2,0.4-0.5,0.5c-1.6-3.5-3.3-6.9-5.1-10.3c-1.7-3.3-3.6-6.5-5.7-9.7c1.9,3.2,3.7,6.4,5.4,9.6c1.7,3.3,3.4,6.8,4.9,10.3
			l-0.7,0.7c0.2,0.4,0.4,0.9,0.7,1.4c0.3,0.5,0.5,0.9,0.6,1.4c0,0.1,0.1,0.4,0.2,0.7c0.1,0.4,0.2,0.8,0.2,1.2c0,0.4,0,0.8,0,1.1
			c-0.1,0.3-0.2,0.5-0.4,0.6c-0.2,0.1-0.5,0-0.9-0.2c-0.3-0.2-0.7-0.5-1-0.9c-0.3-0.3-0.6-0.7-0.9-1c-0.3-0.3-0.5-0.6-0.6-0.7
			c-1-2.5-2.2-5.3-3.6-8.3c-1.5-3-3-6-4.7-9.1c-1.7-3-3.5-5.9-5.3-8.7c-1.8-2.8-3.6-5.2-5.4-7.2l0,0.3c2,2.3,3.8,4.7,5.5,7.3
			c1.7,2.5,3.2,5.1,4.7,7.8c1.5,2.7,2.8,5.4,4.1,8.2c1.3,2.8,2.5,5.5,3.6,8.3c-1.3-1.6-2.5-3.2-3.5-4.9c-1-1.7-2-3.4-2.8-5.2
			c-0.9-1.7-1.8-3.5-2.7-5.3c-0.9-1.8-1.9-3.5-3-5.3l0.1-1.3c-1-1.4-2-2.9-3-4.3c-1-1.4-2.1-2.7-3.2-4l-0.1,0.7
			c-0.1,1.3-0.3,2.8-0.5,4.5c-0.2,1.7-0.6,3.5-1.1,5.2c-0.5,1.7-1.1,3.3-1.9,4.8c-0.8,1.5-1.8,2.6-3,3.4c-1-0.3-1.9-0.5-2.9-0.7
			c-1-0.2-1.9-0.4-2.9-0.7l-0.1-0.4l2.7,0.6c0.9,0.2,1.8,0.4,2.7,0.7l0.4-0.2c1.4-1.4,2.5-2.8,3.2-4.1c0.8-1.3,1.3-2.6,1.8-4
			c0.4-1.4,0.7-2.9,0.9-4.5c0.2-1.6,0.3-3.5,0.6-5.5l-0.4-0.5l-0.1,0.6l-0.4,2.6c-0.1,1-0.3,2.2-0.6,3.4c-0.3,1.2-0.6,2.5-1,3.8
			c-0.4,1.3-0.8,2.5-1.2,3.6c-0.4,1.1-1,2.1-1.5,2.8s-1.2,1.3-1.9,1.4L38.1,163.4z M23.2,150.1l0.4,1.8c0.1,0.4,0.2,0.9,0.3,1.6
			l-0.3-3.6L23.2,150.1z M43.5,145.8l0.5-4l-0.2,0.1L43.5,145.8z M48.2,145.6l-0.5,5.8c0.2-0.9,0.3-1.8,0.4-2.8
			c0.1-0.9,0.2-1.8,0.3-2.7L48.2,145.6z M45.2,140.6l1.3,1.7l0.3-0.1l-1.2-1.7L45.2,140.6z M49.3,144.5l-0.1,0.3l0.4,0.4l0-0.3
			L49.3,144.5z M50.7,139.5l-2-1.8l0.3,0.6L50.7,139.5z M54.3,143.6c-0.1-0.2-0.4-0.5-0.7-0.9c-0.3-0.4-0.6-0.7-1-1.1
			c-0.3-0.4-0.7-0.7-1-1.1c-0.3-0.4-0.5-0.6-0.7-0.8l1.1,1.6l2,2.3L54.3,143.6z"/>
		<path class="st4" d="M78.7,172.2c-0.1-1.1-0.4-2.5-0.6-3.9c-0.3-1.5-0.6-3-0.9-4.5c-0.3-1.5-0.6-3-0.9-4.5
			c-0.3-1.5-0.5-2.7-0.7-3.8c0.1,1.1,0.3,2.4,0.5,3.8c0.2,1.4,0.5,2.9,0.7,4.3c0.2,1.5,0.5,3,0.7,4.4c0.2,1.5,0.5,2.8,0.7,3.9
			c-0.7-0.2-1.1-0.7-1.3-1.3c-0.2-0.8-0.4-1.4-0.5-2c-0.1-0.5-0.2-1.2-0.3-1.9l0.5-0.8c-0.1-0.2-0.2-0.4-0.2-0.5l-0.2-0.6
			c-0.3-0.9-0.4-1.9-0.6-3.1c-0.1-1.2-0.2-2.4-0.3-3.7c-0.1-1.3-0.2-2.5-0.3-3.6c-0.1-1.2-0.3-2.2-0.5-3l-0.8,0
			c0.2,1,0.4,2.1,0.5,3.3c0.2,1.2,0.4,2.5,0.5,3.8c0.2,1.3,0.4,2.6,0.6,3.9c0.1,0.7,0.2,1.3,0.3,1.9c-0.2-1.1-0.5-2.3-0.7-3.6
			c-0.3-1.8-0.6-3.7-0.9-5.5c-0.3-1.8-0.6-3.6-0.8-5.4c-0.3-1.8-0.5-3.4-0.7-4.9c-0.2-0.6-0.2-1.3-0.1-2c0.1-0.8,0.1-1.5,0-2.3
			c0.3,0,0.5,0,0.6,0l0.4-0.1c0.4-0.1,0.7-0.1,0.8,0.1c0.2,0.1,0.3,0.4,0.4,0.7l0.1,0.3l0.6,0c0.1-0.7,0.4-1.2,0.7-1.7
			c0.3-0.5,0.7-0.8,1.1-0.9c0.9-0.3,1.7,0.6,2.2,2.6c0.3,1.1,0.5,2.2,0.6,3.5c0.1,1.2,0.3,2.4,0.6,3.6l0.2,0.8
			c0.3,1.2,0.6,2.6,0.7,4.2c0.1,1.5,0.2,3.1,0.3,4.7c0.1,1.6,0.2,3.1,0.3,4.6c0.1,1.5,0.3,2.8,0.7,4c0.1,0.3,0.2,0.6,0.3,0.9
			c0.1,0.3,0.2,0.6,0.3,0.9c0.2,0.6,0.2,1,0,1.2c-0.2,0.2-0.4,0.3-0.7,0.4c-0.1-0.5-0.3-1.1-0.6-1.9c-0.2-0.7-0.5-1.4-0.6-2
			c0,0.5,0.2,1,0.4,1.8c0.2,0.7,0.4,1.5,0.5,2.1l-0.9,0.2l0.2,0.7c-0.2,0.7-0.6,1.2-1.1,1.3c-0.3,0.1-0.6,0.1-1,0
			C79.3,172.4,78.9,172.3,78.7,172.2z M76,165.8c-0.1-0.4-0.2-0.9-0.2-1.3C75.8,165,75.9,165.4,76,165.8z M78.2,123.9
			c-0.6,0.6-1,1.2-1.4,2c-0.4,0.8-0.8,1.5-1.2,2.3c0.3-0.3,0.5-0.7,0.7-1c0.2-0.3,0.4-0.7,0.6-1.1c0.2-0.4,0.5-0.7,0.7-1.1
			c0.3-0.4,0.6-0.7,0.9-1.1c0.2,0.1,0.3,0.2,0.4,0.3c0.1,0.1,0.2,0.2,0.2,0.3l-1,1.7c0-0.1-0.1-0.1-0.3-0.2c-0.2,0-0.3,0-0.4,0
			c0,0.4-0.1,0.8-0.3,1.1c-0.2,0.3-0.4,0.6-0.6,0.9c-0.2,0.3-0.4,0.6-0.6,0.9s-0.3,0.7-0.3,1.1l0,0.1c0,0,0.1,0,0.2,0l2.2-3.6
			l-0.8,1.4c-0.4,0.7-0.8,1.4-1.3,2.1c-0.4,0.7-0.9,1.4-1.3,2c-0.4,0.6-0.7,0.9-0.8,0.9l-0.1,0c-0.3,0-0.6,0-0.9,0.1
			c-0.3,0.1-0.6,0.1-0.9,0.2c-0.1-0.3-0.2-0.6-0.4-1c-0.2-0.3-0.3-0.6-0.4-0.8c-0.1-0.2,0-0.3,0.2-0.4c0-0.1-0.2-0.3-0.4-0.5
			c-0.2-0.2-0.4-0.5-0.7-0.8c-0.2-0.3-0.5-0.6-0.7-0.9c-0.2-0.3-0.4-0.7-0.5-1.1c-0.1-0.4,0-0.8,0.2-1.3c0.2-0.5,0.5-0.9,0.9-1.3
			c0.4-0.4,0.7-0.8,1.1-1.1c0.4-0.3,0.6-0.5,0.8-0.7c0.2,0,0.2-0.1,0.1-0.3c-0.1-0.2-0.1-0.3,0.1-0.3l1.1,0.1c0,0.2-0.2,0.6-0.5,1.2
			c-0.3,0.6-0.5,1-0.6,1.2c0.2-0.3,0.5-0.7,0.7-1.1c0.3-0.5,0.5-0.9,0.6-1.1c0.2,0,0.4,0.1,0.6,0.1s0.3,0,0.4,0l0.1-0.2
			c0.3-0.1,0.6-0.1,1-0.1c0.4,0,0.7,0.1,1,0.2c0.3,0.1,0.6,0.2,0.8,0.3C78,123.7,78.2,123.8,78.2,123.9z"/>
		<path class="st4" d="M96.6,166.4c-0.1-0.2-0.1-0.4,0-0.8c0-0.3,0-0.6-0.1-0.9c-0.1-1-0.3-1.7-0.3-2.1c-0.1-0.4-0.2-0.8-0.2-1.1
			c-0.5-1.6-1-3.4-1.6-5.2c-0.6-1.9-1.2-3.7-1.8-5.4c-0.2-0.5-0.3-1.2-0.6-1.9c-0.2-0.7-0.4-1.3-0.6-1.7c-0.3-1.4-0.5-2.8-0.8-4.1
			c-0.3-1.3-0.6-2.7-1-4.1l-0.4-1.5c-0.1-0.5-0.3-1-0.5-1.5c0.1,0.1,0.3,0.1,0.4,0.1c0.2,0,0.3-0.1,0.4-0.3c0.1-0.2,0.3-0.3,0.4-0.3
			c0.3-0.1,0.6,0.2,0.9,0.7c0.3,0.5,0.8,1.8,1.3,3.8l0.5-0.1c-0.4-2.2-0.6-4.1-0.5-5.5c0.1-1.4,0.3-2.2,0.7-2.3
			c0.2-0.1,0.6,0.3,1.3,1c0.7,0.7,1.2,2,1.7,3.8l0.3-1.2c0.3-0.6,0.6-1.3,1-2c0.4-0.7,0.8-1.3,1.4-2c0.5-0.6,1.2-1.2,1.9-1.7
			c0.7-0.5,1.6-0.9,2.7-1.2c2-0.6,3.9-0.6,5.7-0.1c1.8,0.5,3.3,1.3,4.8,2.5c1.4,1.2,2.7,2.6,3.9,4.3c1.2,1.7,2.2,3.4,3.1,5.2
			c0.9,1.8,1.6,3.5,2.2,5.3c0.6,1.7,1.1,3.2,1.4,4.5c0.3,1.1,0.4,1.8,0.4,2.1c-0.1,0.3-0.3,0.4-0.6,0.6c-0.9-3-2-6-3.1-9
			c-1.2-3-2.8-5.8-4.8-8.4c1.9,2.8,3.4,5.6,4.6,8.5s2.1,5.8,2.9,8.8c-0.3-0.1-0.5-0.1-0.7,0c-0.2,0-0.3,0.1-0.4,0.3
			c0.1,0.3,0.2,0.6,0.3,1c0.1,0.3,0.2,0.6,0.3,0.9c0.1,0.3,0.2,0.6,0.3,0.9c0,1,0,1.7-0.2,2.1s-0.3,0.7-0.5,0.8
			c-0.2,0.1-0.5,0-0.7-0.2c-0.2-0.2-0.4-0.4-0.7-0.7c-0.2-0.3-0.5-0.6-0.7-0.9c-0.2-0.3-0.5-0.6-0.9-0.9c-0.1-0.7-0.2-1.2-0.3-1.7
			c-0.1-0.4-0.2-0.8-0.2-1c-0.3-1.1-0.7-2.3-1.1-3.8c-0.5-1.5-1-3-1.6-4.6c-0.6-1.6-1.4-3.1-2.2-4.6c-0.8-1.5-1.7-2.8-2.7-3.9
			c-1-1.1-2.1-1.9-3.3-2.4c-1.2-0.5-2.5-0.6-3.8-0.2c-0.9,0.3-1.7,0.8-2.2,1.6c-0.5,0.8-0.9,1.8-1.2,2.9c-0.3,1.1-0.4,2.3-0.5,3.6
			c-0.1,1.3-0.1,2.4,0,3.6c0-1.2,0.1-2.4,0.2-3.6c0.1-1.2,0.2-2.4,0.5-3.5c0.3-1.1,0.7-2,1.2-2.8c0.5-0.8,1.3-1.3,2.2-1.6
			c1.2-0.3,2.3-0.3,3.4,0.1c1.1,0.4,2,1.1,2.9,1.9c0.9,0.9,1.7,1.9,2.5,3.2c0.7,1.2,1.4,2.5,2,3.9c0.6,1.3,1.1,2.6,1.5,3.9
			c0.4,1.3,0.8,2.4,1,3.3c0.2,0.7,0.4,1.5,0.6,2.2c0.2,0.7,0.4,1.5,0.5,2.3c-0.8-1.4-1.5-2.9-2.1-4.4c-0.6-1.6-1.3-3.1-1.9-4.6
			c-0.6-1.5-1.3-3-2-4.4s-1.5-2.6-2.4-3.7l0.2-0.7c-0.6-0.8-1.3-1.4-1.9-1.7c-0.6-0.4-1.2-0.6-1.7-0.7c-0.5-0.1-1-0.1-1.4-0.1
			c-0.4,0.1-0.7,0.1-0.8,0.2c-1,0.3-1.7,0.9-2.3,1.8c-0.6,0.9-1,2-1.2,3.4s-0.3,2.9-0.3,4.5c0,1.7,0.1,3.4,0.3,5.2
			c0.2,1.8,0.4,3.6,0.6,5.4c0.3,1.8,0.5,3.5,0.8,5l0.5-0.1c-0.2-1.4-0.4-2.9-0.6-4.6c-0.2-1.7-0.5-3.3-0.7-5.1
			c-0.2-1.7-0.4-3.4-0.4-5.1c-0.1-1.7-0.1-3.2,0.1-4.6c0.1-1.4,0.4-2.6,0.9-3.5c0.4-0.9,1.1-1.6,1.9-1.9c-0.8,0.4-1.4,1.2-1.7,2.2
			c-0.4,1.1-0.6,2.4-0.7,3.9c-0.1,1.5-0.1,3.1,0,4.8c0.1,1.7,0.2,3.4,0.3,4.9l1.2,8.9c0,0.6,0,1.1,0.1,1.6l0.1,1.3
			c0,0.4,0.1,0.9,0.1,1.3c0,0.5,0.1,1,0.1,1.6l0,0.8L104,167l-6.5-0.3c-0.2,0-0.4,0-0.5-0.1C96.9,166.6,96.8,166.5,96.6,166.4z
			 M98.4,133.6c-0.6,0.9-1,1.8-1.2,2.6c-0.2,0.9-0.4,1.8-0.6,2.7l0,0.1c0.2-1.3,0.7-2.6,1.3-4.1c0.6-1.4,1.6-2.5,3.1-3.5
			c-0.5,0.3-0.9,0.6-1.3,0.9C99.1,132.6,98.7,133,98.4,133.6z M108.3,135.9c-0.4-0.1-0.8-0.2-1.2-0.3c-0.4,0-1-0.1-1.6-0.1l-0.1-0.1
			c0.7-0.1,1.3-0.2,1.9-0.1c0.6,0.1,1.2,0.4,1.8,0.9L108.3,135.9z M104.9,129.7c-0.2,0-0.5,0.1-0.8,0.2c1.3,0,2.6,0,3.8,0
			c1.2,0.1,2.4,0.5,3.7,1.3c-0.9-0.7-2-1.2-3.2-1.4C107.1,129.7,106,129.6,104.9,129.7z M111.7,131.3c0.7,0.5,1.4,1.1,2.2,1.9
			c0.7,0.7,1.3,1.4,1.9,1.9c-0.6-0.8-1.2-1.5-1.8-2.1C113.4,132.3,112.6,131.8,111.7,131.3z"/>
		<path class="st4" d="M154.6,115.9l0.1,1.1c0.3,2,0.8,4,1.4,6.2c0.6,2.2,1,4.4,1.3,6.6c-0.3-2.2-0.6-4.4-1-6.5
			c-0.4-2.2-0.8-4.4-1.2-6.5c0.4,0.6,0.7,1.2,1.1,1.8c0.3,0.7,0.6,1.4,0.8,2.2c0.3,2,0.7,3.9,1,5.8c0.3,1.8,0.7,3.8,0.9,5.8
			l-0.7,0.4c0.3,1.8,0.4,3.9,0.4,6.2c0,2.3-0.4,4.5-1.1,6.6s-1.8,4-3.3,5.8c-1.5,1.7-3.6,2.9-6.2,3.7c-0.9,0.2-1.8,0.4-2.8,0.6
			c-1,0.1-2,0.2-3,0.1c-1,0-1.9-0.2-2.9-0.4c-0.9-0.2-1.8-0.6-2.6-1.2l0.1,0.1l0,0.1l0,0.1l-0.2,0c0.3,0.3,0.7,0.5,1,0.7
			c-0.9-0.4-1.7-1-2.5-1.6c-1.3-1.1-2.6-2.4-3.7-4.1c-0.7-1-1.2-2-1.7-3.1c-0.5-1.1-1-2.2-1.4-3.5c-0.4-1.2-0.9-2.6-1.3-4.1
			s-0.9-3.1-1.4-4.9c0-1.5-0.2-3-0.4-4.4c-0.2-1.5-0.5-2.9-0.8-4.3c0.1,0,0.2-0.1,0.4-0.2c0.1-0.1,0.3-0.1,0.5-0.2
			c0.3-0.1,0.6,0,0.9,0.3c0.3,0.3,0.6,0.9,0.9,1.9l0.1,0.5c0,0.2,0.1,0.3,0.1,0.5l0.7-0.2c-0.1-1.7-0.1-3.1,0.1-4.1
			c0.2-1,0.5-1.5,0.9-1.6c0.3-0.1,0.7,0.3,1.2,1.1c0.5,0.8,1,2.1,1.5,4c0.4,1.4,0.7,2.8,1,4.2c0.3,1.4,0.7,2.9,1.1,4.4
			c0.6,2.3,1.3,4.4,2.1,6.2s1.6,3.3,2.6,4.4c1,1.2,2.2,1.9,3.5,2.3c1.4,0.4,2.9,0.3,4.8-0.2c1.5-0.4,2.7-1.2,3.4-2.5
			c0.8-1.2,1.3-2.7,1.5-4.5c0.3-1.8,0.4-3.7,0.3-5.9c-0.1-2.2-0.2-4.4-0.4-6.8c-0.1-0.6-0.2-1.3-0.3-1.9s-0.3-1.3-0.5-1.9l-0.5-1.8
			c-0.3-1.1-0.5-2.1-0.6-2.9c-0.1-0.8,0.1-1.4,0.6-1.6c0.6,2,1,4,1.5,6c0.4,1.9,0.8,3.8,1.1,5.7c-0.2-1.9-0.5-3.8-0.9-5.7
			c-0.4-2-0.8-3.9-1.3-5.9c0.3,0.1,0.5,0.1,0.7,0.1c0.2,0,0.3-0.2,0.4-0.4l-0.6-2.1c0-0.8,0.1-1.3,0.2-1.7s0.3-0.6,0.5-0.6
			c0.2-0.1,0.5,0,0.8,0.2c0.3,0.2,0.6,0.4,0.9,0.7L154.6,115.9z M139.5,155.7c-0.6-0.2-1.1-0.4-1.6-0.7
			C138.4,155.3,138.9,155.5,139.5,155.7z M139.7,155.7c1.1,0.2,2.2,0.4,3.2,0.4c1.1,0,2.1,0,3-0.2c0.9-0.1,1.6-0.3,2.2-0.4
			c2.7-0.8,4.9-2,6.4-3.8c1.6-1.7,2.7-3.7,3.4-5.8c0.7-2.2,1.1-4.4,1.2-6.6c0.1-2.1,0-4-0.1-5.8c0.2,1.7,0.3,3.6,0.2,5.8
			c-0.1,2.3-0.5,4.5-1.2,6.7c-0.7,2.2-1.8,4.1-3.4,5.9c-1.5,1.8-3.6,3-6.3,3.8c-1.5,0.4-3,0.6-4.5,0.6c-1.5,0-3.1-0.2-4.5-0.7
			C139.6,155.7,139.7,155.7,139.7,155.7z M158.1,135.1c-0.1-0.7-0.2-1.4-0.2-2c-0.1-0.6-0.2-1.1-0.2-1.7c0.2,1.8,0.4,3.7,0.4,5.8
			c0,2.1-0.2,4.2-0.7,6.3c-0.5,2-1.3,4-2.4,5.7c-1,1.7-2.4,3-4.2,4c1.5-0.8,2.8-1.9,3.8-3.3c1-1.4,1.8-3,2.4-4.6
			c0.5-1.7,0.9-3.4,1.1-5.1C158.1,138.4,158.2,136.7,158.1,135.1z M153.5,140.8c-0.2,1-0.4,1.9-0.7,2.9c-0.3,0.9-0.7,1.8-1.2,2.6
			c0.5-0.8,1-1.6,1.3-2.6C153.1,142.8,153.3,141.8,153.5,140.8z M157.6,131.1c0,0.1,0,0.2,0,0.3
			C157.6,131.3,157.6,131.2,157.6,131.1z"/>
		<path class="st4" d="M185,114.2c-0.4,0.1-0.8,0.3-1.4,0.6c-0.6,0.3-1.1,0.6-1.7,0.9c-0.6,0.3-1.1,0.6-1.5,0.9
			c-0.4,0.3-0.7,0.5-0.8,0.6c1-0.4,1.9-0.9,2.6-1.3c0.8-0.5,1.7-0.8,2.7-1.1c-0.1,0.4-0.3,0.7-0.5,1c-0.3,0.3-0.6,0.5-0.9,0.7
			c-0.3,0.2-0.7,0.4-1.1,0.6c-0.4,0.2-0.8,0.4-1.3,0.6l-0.6-0.4c-0.7,0.5-1.2,0.8-1.6,1c-0.4,0.2-0.8,0.3-1.2,0.4
			c-0.5,0.1-0.9,0.3-1.4,0.4c-0.5,0.1-1,0.3-1.6,0.4c0.1,0.2,0.1,0.4,0.1,0.5c0.9-0.2,1.7-0.5,2.3-0.7s1.4-0.5,2.2-0.8
			c-0.8,0.4-1.5,0.7-2.2,1c-0.6,0.3-1.4,0.5-2.3,0.8c0.1,0.9,0.2,1.9,0.3,2.7c0.1,0.9,0.3,1.7,0.5,2.6c0.1,0.5,0.3,1,0.5,1.6
			c0.2,0.6,0.4,1.2,0.7,1.9c0.2,0.6,0.5,1.2,0.7,1.8c0.2,0.6,0.3,1,0.4,1.2l1,3.5c0.4,0.7,1.1,1.2,2.2,1.3c1,0.1,2.4-0.1,4.2-0.5
			l1.9-0.5c0.7-0.2,1.1-0.2,1.4-0.2c0.3,0.1,0.5,0.2,0.5,0.4c0.1,0.2-0.1,0.3-0.4,0.5c-0.3,0.1-0.6,0.2-0.9,0.3
			c-1.1,0.3-2.3,0.6-3.6,0.8c-1.2,0.2-2.4,0.3-3.6,0.4c1.2,0,2.5-0.1,3.8-0.2c1.3-0.2,2.6-0.4,3.8-0.8l0.5-0.1
			c0.2,0,0.3-0.1,0.5-0.2c0.1,0.2,0.1,0.4,0.2,0.5c0.1,0.2,0.2,0.3,0.3,0.5l0.4-0.2c0.1-0.1,0.2-0.1,0.4-0.2
			c0.1-0.1,0.3-0.1,0.3-0.2c1.3-0.2,2,0,2.2,0.8c0.1,0.4,0.1,0.8-0.1,1.1c-0.2,0.3-0.4,0.6-0.7,0.9c-0.3,0.3-0.7,0.5-1.1,0.6
			c-0.4,0.2-0.8,0.3-1.2,0.4c-1.4,0.4-2.7,0.7-4.1,0.9c-1.4,0.2-2.7,0.4-4,0.5c1.2,0.1,2.7,0,4.4-0.2c1.7-0.2,3.5-0.6,5.2-1.1
			c-0.4,0.4-0.8,0.7-1.3,1.1c-0.5,0.3-1.1,0.6-1.7,0.7l-4.4,0.7c-0.6,0.1-1,0.1-1.3,0.1c-0.3,0-0.6,0-0.9,0c-0.3,0-0.6,0-1-0.1
			c-0.4,0-0.9,0-1.5,0l-0.2-0.6c-1.1,0-2-0.2-2.8-0.7c-0.8-0.5-1.5-1.1-2.1-1.8c-0.6-0.7-1-1.4-1.4-2.2c-0.3-0.8-0.6-1.5-0.8-2.1
			c-0.2-0.7-0.3-1.3-0.5-1.8c-0.1-0.6-0.3-1.1-0.5-1.7c-0.1-0.4-0.3-1-0.5-1.6c-0.2-0.7-0.4-1.3-0.7-2.1c-0.2-0.7-0.5-1.5-0.7-2.3
			c-0.2-0.8-0.5-1.5-0.7-2.2c-0.1-0.4-0.2-0.8-0.3-1.2c-0.1-0.4-0.2-0.8-0.2-1.1l-0.6,0.2c0,0.3,0.1,0.6,0.2,1l0.3,1.1
			c0.3,1.1,0.6,2.2,1,3.3c0.3,1.1,0.7,2.1,0.9,3c0.3,0.9,0.5,1.7,0.8,2.4c0.2,0.7,0.4,1.2,0.5,1.5l0.7,2.3l0.1,0.5
			c-0.4-1-0.9-2.5-1.6-4.4c-0.7-2.2-1.5-4.7-2.3-7.4l-0.3-1.1c-0.1-0.4-0.2-0.8-0.3-1.2c-0.1-0.4-0.1-0.7-0.1-0.9l-2,0.4
			c-0.5-0.2-1-0.2-1.5-0.3c-0.5,0-0.9,0-1.2,0.1l-0.3-1.2c-0.1-0.2-0.1-0.4-0.1-0.6c0-0.2,0.2-0.3,0.5-0.4c0.1,0,0.3,0,0.6,0
			l-0.2-0.7c-0.5-0.1-0.9-0.3-1.3-0.7c-0.4-0.3-0.6-0.7-0.8-1.1c-0.3-1,0.3-1.7,1.7-2.1c0.5-0.2,1.1-0.3,1.7-0.4
			c0.6-0.1,1.2-0.2,1.9-0.3c-0.1-0.9-0.2-1.7-0.2-2.4c-0.1-0.7-0.1-1.4-0.2-2.1c-0.1-0.7-0.1-1.4-0.1-2c0-0.7,0-1.4,0-2.2
			c0.1-0.9,0.2-1.8,0.1-2.8c-0.1-1-0.2-1.9-0.4-2.8l1.2-0.3c0.2-0.1,0.4,0,0.5,0s0.3,0.3,0.4,0.8c0.1,0.4,0.2,0.8,0.2,1.5l0.7,0
			c0-1.1,0.2-2.1,0.4-2.9c0.3-0.8,0.6-1.2,1-1.4c0.7-0.2,1.3,0.5,1.9,2.2l0.3,1.1c0.3,1,0.5,2,0.6,2.9c0.1,0.9,0.2,1.8,0.2,2.7
			c0,0.9,0.1,1.8,0.2,2.8c0.1,1,0.2,2,0.3,3.1c0.9-0.1,1.7-0.3,2.6-0.5c0.4-0.1,0.8-0.2,1.2-0.4c0.4-0.1,0.8-0.2,1.2-0.4
			c0.4-0.1,0.8-0.4,1.1-0.8c0.3-0.4,0.7-0.7,1-0.8c0.3-0.1,0.6-0.1,0.8,0.1c0.2,0.2,0.3,0.3,0.4,0.6c-0.6,0.4-1.3,0.8-1.9,1.2
			c-0.6,0.4-1.2,0.8-1.8,1.2c0.6-0.3,1.2-0.6,1.9-1c0.6-0.4,1.3-0.8,2-1.2c0.1,0.2,0.1,0.4,0.2,0.5c0.1,0.2,0.2,0.3,0.3,0.5
			c0.1,0,0.2-0.1,0.3-0.1c0.2-0.1,0.3-0.2,0.4-0.2c0.4,0.1,0.8,0.3,1,0.5c0.2,0.3,0.3,0.6,0.4,0.9c0.1,0.3,0.1,0.5,0.1,0.8
			C185,113.9,185,114.1,185,114.2z M175.6,140.1c-0.8-0.9-1.4-1.8-1.7-2.9c-0.3-1-0.6-1.9-1-2.8l-3-8.7l0.1,1.1c0.7,2.6,1.5,5,2.2,7
			c0.8,2.1,1.5,3.6,2.2,4.7c0.1,0.4,0.2,0.6,0.2,0.7c0,0.1,0,0.2,0.1,0.3c0,0.1,0.1,0.2,0.2,0.3C175,139.9,175.2,140,175.6,140.1z
			 M178,136c-0.2-0.3-0.3-0.6-0.4-1l-0.8-2.9c0.1,0.4,0.1,0.8,0.2,1.2c0.1,0.4,0.2,0.8,0.3,1.2c0.3,1,0.6,1.8,0.8,2.3
			c0.2,0.4,0.6,0.8,1,1c-0.3-0.2-0.5-0.4-0.6-0.6C178.4,136.9,178.2,136.5,178,136z M179.3,137.8c-0.1,0-0.1,0-0.1,0
			C179.2,137.8,179.2,137.8,179.3,137.8z"/>
		<path class="st4" d="M220.6,136.9c-1.3,0.9-2.4,1.5-3.2,1.8c-0.8,0.3-1.4,0.5-2,0.7c-2.2,0.6-4.3,0.8-6.2,0.4
			c-2-0.3-3.8-1-5.4-2.1s-3.1-2.4-4.3-4.1c-1.2-1.7-2.1-3.6-2.7-5.8c-0.3-1.2-0.6-2.6-0.7-4c-0.1-1.4-0.2-2.8-0.1-4.3
			c0.1-1.4,0.4-2.8,0.8-4.2c0.4-1.3,0.9-2.6,1.7-3.7c-0.8,1.1-1.4,2.3-1.8,3.6c-0.4,1.3-0.7,2.7-0.8,4.2c-0.1,1.4-0.1,2.9,0,4.3
			c0.2,1.4,0.4,2.8,0.8,4.1c0.5,1.6,1.2,3.3,2.3,5c1,1.7,2.4,3.2,4,4.4c1.6,1.3,3.5,2.1,5.6,2.7c2.1,0.5,4.5,0.4,7.2-0.3
			c1.2-0.3,2.5-0.9,3.8-1.6c-1.2,1.4-2.7,2.3-4.6,2.8c-1.5,0.4-2.9,0.6-4.4,0.5c-1.4-0.1-2.8-0.4-4.1-0.9c-1.3-0.5-2.6-1.2-3.8-2
			c-1.2-0.8-2.3-1.8-3.3-2.9l0.4-0.6c-1-1.1-1.9-2.3-2.5-3.6c-0.7-1.2-1.2-2.5-1.6-3.9c-0.6-2-0.8-4-0.8-6c0.1-2,0.3-3.9,0.8-5.8
			l0.9-2.3c0.1-0.5,0.3-1,0.7-1.6c0.3-0.6,0.7-1.1,1.1-1.7c0.4-0.6,0.9-1.1,1.4-1.6c0.5-0.5,1-1,1.5-1.4c1.2-1.1,2.4-2.1,3.7-3.1
			c1.2-1,2.8-1.8,4.6-2.6l-0.3-0.1c-3.5,1.4-6.3,3.1-8.4,5.1c-2.1,2.1-3.7,4.3-4.7,6.8c-1,2.4-1.5,4.9-1.6,7.5c0,2.6,0.3,5,0.9,7.2
			c0.3,1.2,0.8,2.4,1.3,3.6c0.6,1.2,1.2,2.3,2,3.4c-1.6-2.1-2.8-4.4-3.5-7c-0.7-2.6-1-5.2-0.9-8c0.1-2.8,0.8-5.5,2.1-8.1
			c1.7-2.8,3.8-5.2,6.3-7.1c2.4-1.9,5-3.2,7.5-4c0.8-0.2,1.7-0.3,2.6-0.3c0.9,0,1.8,0.2,2.7,0.6c0.9,0.4,1.6,0.9,2.3,1.7
			c0.7,0.8,1.2,1.8,1.6,3.1c0.3,1.1,0.4,2.4,0.3,4.1c-0.1,1.7-0.4,3.3-1,5c-0.6,1.7-1.5,3.3-2.7,4.7c-1.2,1.4-2.8,2.4-4.7,2.9
			l-1.9,0.5c-1.5,0.1-2.9,0.1-4.2,0c-1.3-0.1-2.5-0.1-3.6,0c0,0.7,0.1,1.3,0.2,1.9c0.1,0.6,0.3,1.1,0.4,1.7c0.3,1.1,0.8,2.2,1.3,3.2
			c0.6,1,1.2,1.9,2,2.6c0.8,0.7,1.7,1.3,2.7,1.7c1,0.4,2.1,0.5,3.4,0.3c0.8,0,1.5-0.1,2-0.3c0.6-0.1,1-0.2,1.4-0.3
			c0.4-0.1,0.7-0.1,0.9-0.1c0.2,0,0.3,0.2,0.4,0.5c-0.4,0.2-0.7,0.4-1.1,0.6s-0.8,0.3-1.2,0.4c-1.4,0.4-2.7,0.5-3.9,0.4
			c-1.2-0.1-2.3-0.4-3.2-0.8c1.1,0.6,2.4,1,3.7,1c1.3,0,2.6-0.1,3.8-0.5c0.7-0.2,1.3-0.4,2-0.7c0,0.3,0,0.4,0,0.4
			c0.1,0.2,0.2,0.4,0.4,0.4c0.1-0.1,0.4-0.3,0.7-0.5c0.3-0.3,0.7-0.6,1.1-0.9c0.4-0.3,0.7-0.6,1.1-0.8c0.4-0.2,0.6-0.4,0.8-0.4
			c0.2-0.1,0.4-0.1,0.5-0.1s0.3,0.2,0.4,0.6c0.1,0.4,0.1,0.9,0,1.5C221.3,135.6,221,136.2,220.6,136.9z M206.7,134.8
			c-0.4-0.2-0.7-0.5-1.1-0.7c-0.3-0.2-0.6-0.4-0.8-0.7C205.3,134,205.9,134.5,206.7,134.8z M204.6,121.1c0.1-0.1,0.1-0.2,0-0.4
			c0-0.2,0-0.3-0.1-0.4l-3-0.2l-0.1,0.9L204.6,121.1z M206.1,116l1.4-0.1c0.4,0,0.9-0.1,1.2-0.2c0.4-0.1,0.8-0.4,1.3-0.8
			c0.5-0.4,0.9-0.9,1.3-1.5c0.4-0.6,0.7-1.3,0.9-2.1c0.2-0.8,0.3-1.7,0.2-2.6l0-0.4c-0.5,0.2-1.3,0.5-2.3,1.1c-1,0.6-2,1.3-3.1,2
			c-1,0.8-2,1.6-2.8,2.5c-0.8,0.9-1.4,1.7-1.6,2.5c0.6,0,1.2-0.1,1.8-0.2C204.9,116.2,205.5,116.1,206.1,116z"/>
		<path class="st4" d="M232.1,128.6c-0.1-0.2-0.1-0.4,0-0.8c0-0.3,0-0.6-0.1-0.9c-0.1-1-0.3-1.7-0.3-2.1c-0.1-0.4-0.2-0.8-0.2-1.1
			c-0.5-1.6-1-3.4-1.6-5.2c-0.6-1.9-1.2-3.7-1.8-5.4c-0.2-0.5-0.3-1.2-0.6-1.9c-0.2-0.7-0.4-1.3-0.6-1.7c-0.3-1.4-0.5-2.8-0.8-4.1
			c-0.3-1.3-0.6-2.7-1-4.1l-0.4-1.5c-0.1-0.5-0.3-1-0.5-1.5c0.1,0.1,0.3,0.1,0.4,0.1c0.2,0,0.3-0.1,0.4-0.3s0.3-0.3,0.4-0.3
			c0.3-0.1,0.6,0.2,0.9,0.7c0.3,0.5,0.8,1.8,1.3,3.8l0.5-0.1c-0.4-2.2-0.6-4.1-0.5-5.5c0.1-1.4,0.3-2.2,0.7-2.3
			c0.2-0.1,0.6,0.3,1.3,1c0.7,0.7,1.2,2,1.7,3.8l0.3-1.2c0.3-0.6,0.6-1.3,1-2c0.4-0.7,0.8-1.3,1.4-2c0.5-0.6,1.2-1.2,1.9-1.7
			c0.7-0.5,1.6-0.9,2.7-1.2c2-0.6,3.9-0.6,5.7-0.1c1.8,0.5,3.3,1.3,4.8,2.5c1.4,1.2,2.7,2.6,3.9,4.3c1.2,1.7,2.2,3.4,3.1,5.2
			c0.9,1.8,1.6,3.5,2.2,5.3s1.1,3.2,1.4,4.5c0.3,1.1,0.4,1.8,0.4,2.1c-0.1,0.3-0.3,0.4-0.6,0.6c-0.9-3-2-6-3.1-9
			c-1.2-3-2.8-5.8-4.8-8.4c1.9,2.8,3.4,5.6,4.6,8.5c1.1,2.9,2.1,5.8,2.9,8.8c-0.3-0.1-0.5-0.1-0.7,0c-0.2,0-0.3,0.1-0.4,0.3
			c0.1,0.3,0.2,0.6,0.3,1c0.1,0.3,0.2,0.6,0.3,0.9c0.1,0.3,0.2,0.6,0.3,0.9c0,1,0,1.7-0.2,2.1c-0.1,0.5-0.3,0.7-0.5,0.8
			c-0.2,0.1-0.5,0-0.7-0.2c-0.2-0.2-0.4-0.4-0.7-0.7c-0.2-0.3-0.5-0.6-0.7-0.9c-0.2-0.3-0.5-0.6-0.9-0.9c-0.1-0.7-0.2-1.2-0.3-1.7
			c-0.1-0.4-0.2-0.8-0.2-1c-0.3-1.1-0.7-2.3-1.1-3.8c-0.5-1.5-1-3-1.6-4.6s-1.4-3.1-2.2-4.6c-0.8-1.5-1.7-2.8-2.7-3.9
			c-1-1.1-2.1-1.9-3.3-2.4c-1.2-0.5-2.5-0.6-3.8-0.2c-0.9,0.3-1.7,0.8-2.2,1.6c-0.5,0.8-0.9,1.8-1.2,2.9c-0.3,1.1-0.4,2.3-0.5,3.6
			c-0.1,1.3-0.1,2.4,0,3.6c0-1.2,0.1-2.4,0.2-3.6c0.1-1.2,0.2-2.4,0.5-3.5c0.3-1.1,0.7-2,1.2-2.8c0.5-0.8,1.3-1.3,2.2-1.6
			c1.2-0.3,2.3-0.3,3.4,0.1c1.1,0.4,2,1.1,2.9,1.9c0.9,0.9,1.7,1.9,2.5,3.2c0.7,1.2,1.4,2.5,2,3.9c0.6,1.3,1.1,2.6,1.5,3.9
			c0.4,1.3,0.8,2.4,1,3.3c0.2,0.7,0.4,1.5,0.6,2.2c0.2,0.7,0.4,1.5,0.5,2.3c-0.8-1.4-1.5-2.9-2.1-4.4c-0.6-1.6-1.3-3.1-1.9-4.6
			c-0.6-1.5-1.3-3-2-4.4c-0.7-1.4-1.5-2.6-2.4-3.7l0.2-0.7c-0.6-0.8-1.3-1.4-1.9-1.7c-0.6-0.4-1.2-0.6-1.7-0.7
			c-0.5-0.1-1-0.1-1.4-0.1c-0.4,0.1-0.7,0.1-0.8,0.2c-1,0.3-1.7,0.9-2.3,1.8c-0.6,0.9-1,2-1.2,3.4s-0.3,2.9-0.3,4.5
			c0,1.7,0.1,3.4,0.3,5.2c0.2,1.8,0.4,3.6,0.6,5.4c0.3,1.8,0.5,3.5,0.8,5l0.5-0.1c-0.2-1.4-0.4-2.9-0.6-4.6
			c-0.2-1.7-0.5-3.3-0.7-5.1c-0.2-1.7-0.4-3.4-0.4-5.1c-0.1-1.7-0.1-3.2,0.1-4.6c0.1-1.4,0.4-2.6,0.9-3.5c0.4-0.9,1.1-1.6,1.9-1.9
			c-0.8,0.4-1.4,1.2-1.7,2.2c-0.4,1.1-0.6,2.4-0.7,3.9c-0.1,1.5-0.1,3.1,0,4.8c0.1,1.7,0.2,3.4,0.3,4.9l1.2,8.9c0,0.6,0,1.1,0.1,1.6
			l0.1,1.3c0,0.4,0.1,0.9,0.1,1.3c0,0.5,0.1,1,0.1,1.6l0,0.8l-0.4,0.1l-6.5-0.3c-0.2,0-0.4,0-0.5-0.1
			C232.3,128.7,232.2,128.6,232.1,128.6z M233.9,95.7c-0.6,0.9-1,1.8-1.2,2.6c-0.2,0.9-0.4,1.8-0.6,2.7l0,0.1
			c0.2-1.3,0.7-2.6,1.3-4.1c0.6-1.4,1.6-2.5,3.1-3.5c-0.5,0.3-0.9,0.6-1.3,0.9C234.6,94.7,234.2,95.2,233.9,95.7z M243.8,98.1
			c-0.4-0.1-0.8-0.2-1.2-0.3c-0.4,0-1-0.1-1.6-0.1l-0.1-0.1c0.7-0.1,1.3-0.2,1.9-0.1c0.6,0.1,1.2,0.4,1.8,0.9L243.8,98.1z
			 M240.3,91.9c-0.2,0-0.5,0.1-0.8,0.2c1.3,0,2.6,0,3.8,0c1.2,0.1,2.4,0.5,3.7,1.3c-0.9-0.7-2-1.2-3.2-1.4
			C242.6,91.8,241.4,91.8,240.3,91.9z M247.1,93.5c0.7,0.5,1.4,1.1,2.2,1.9c0.7,0.7,1.3,1.4,1.9,1.9c-0.6-0.8-1.2-1.5-1.8-2.1
			C248.8,94.5,248.1,93.9,247.1,93.5z"/>
	</g>
	<line class="st5" x1="181.1" y1="17.2" x2="136.4" y2="137.3"/>
	<line class="st6" x1="136.8" y1="137.3" x2="72.4" y2="105.9"/>
</g>
</svg>
