<?xml version="1.0" encoding="utf-8"?>
<!-- Generator: Adobe Illustrator 22.0.1, SVG Export Plug-In . SVG Version: 6.00 Build 0)  -->
<svg version="1.1" id="Laag_1" xmlns="http://www.w3.org/2000/svg" xmlns:xlink="http://www.w3.org/1999/xlink" x="0px" y="0px"
	 viewBox="0 0 898.3 320.3" style="enable-background:new 0 0 898.3 320.3;" xml:space="preserve">
<style type="text/css">
	.st0{fill:#EFAF1E;}
	.st1{fill:#1D1C1B;stroke:#1C1C1B;stroke-width:4;stroke-linecap:round;stroke-linejoin:round;stroke-miterlimit:10;}
	.st2{fill:#FFFDFD;stroke:#FCFCFC;stroke-width:4;stroke-linecap:round;stroke-linejoin:round;stroke-miterlimit:10;}
	.st3{fill:none;}
	.st4{fill:#FFFDFD;stroke:#2A1E18;stroke-width:3.7565;stroke-linecap:round;stroke-linejoin:round;stroke-miterlimit:10;}
	.st5{fill:#FFFDFD;stroke:#2A1E18;stroke-width:3.7792;stroke-linecap:round;stroke-linejoin:round;stroke-miterlimit:10;}
	.st6{font-family:'Cabin-Bold';}
	.st7{font-size:75.1528px;}
</style>
<rect x="-3" y="-4.7" class="st0" width="907" height="332"/>
<g>
</g>
<circle class="st1" cx="460" cy="165.3" r="122.5"/>
<circle class="st2" cx="447.9" cy="153.4" r="122.5"/>
<rect x="333.9" y="89.1" class="st3" width="230.9" height="143.8"/>
<path class="st4" d="M32.8,155h170.1c0,0,9.1,2.2,15.8-7.2s21.7-21.7,33.3-21.1c11.6,0.5,16.3-0.7,18.5-4.5c2.2-3.8,6.2-13,10-13.2
	s11.5-0.2,12.6,8s0.2,16.3-4.1,19.9c-4.3,3.6-7,5.4-12.9,5.8c-5.9,0.4-9.1,0-9.1,0h77c0,0,9.1,1.1,9.7,9.6s-3.3,13.6-8.8,13.6
	c-2.2,0-65.5,0-65.5,0l37.7,0.3c0,0,5.2,3.3,5.3,10.5c0.1,7.1-2.5,12.7-8.4,13s-35,0-35,0l33.8,0.5c0,0,5.4,4.1,5.4,10.9
	s-2,11.7-8.6,11.8s-30.7,0-30.7,0l25.2,0.3c0,0,5.6,3.6,5.6,10.8s-1.6,12.7-7.8,12.2s-56.5,0-56.5,0s-9.2-0.6-17.6-8.1
	s-14.5-7.9-27-7.8s-201,0-201,0v-64.8L32.8,155z"/>
<path class="st5" d="M865.1,120.6H692.9c0,0-9.3,2.2-16-7.2c-6.8-9.4-21.9-21.7-33.7-21.1s-16.5-0.7-18.7-4.5
	c-2.3-3.8-6.3-13-10.2-13.2s-11.6-0.2-12.7,8c-1.1,8.1-0.2,16.3,4.2,19.9s7.1,5.4,13.1,5.8s9.2,0,9.2,0h-77.9c0,0-9.2,1.1-9.8,9.6
	s3.4,13.6,8.9,13.6c2.3,0,66.3,0,66.3,0l-38.1,0.3c0,0-5.2,3.3-5.4,10.5c-0.1,7.1,2.6,12.7,8.5,13c5.9,0.4,35.5,0,35.5,0l-34.3,0.5
	c0,0-5.4,4.1-5.5,10.9s2,11.7,8.7,11.8c6.6,0.1,31.1,0,31.1,0l-25.5,0.3c0,0-5.7,3.6-5.7,10.8c0.1,7.2,1.7,12.7,7.9,12.2
	c6.2-0.4,57.2,0,57.2,0s9.3-0.6,17.8-8.1s14.7-7.9,27.3-7.8c12.6,0.1,203.4,0,203.4,0V121L865.1,120.6z"/>
<text transform="matrix(0.9191 -8.618531e-03 9.376757e-03 1 351.0052 173.5434)" class="st6 st7">Win 5’ </text>
</svg>
